<svg xmlns="http://www.w3.org/2000/svg" viewBox="0 0 1183.87 421.64"><defs><style>.cls-1{fill:#191919;stroke:#000;stroke-linecap:round;stroke-linejoin:round;stroke-width:8px;}</style></defs><g id="Layer_2" data-name="Layer 2"><g id="arkagolge"><path class="cls-1" d="M81.48,346.82c32.63-65.74,108.08-95.44,170.61-72,52.88,19.82,88.41,74.62,86.08,135.39h47.74l7.44,7.43H494.7l19-19c1.57-1.57,17.81,0,17.81,0l11.25,11.25s174,2.59,176.57,0l12.77-12.77h22.45l17.68,17.68h43.37l12.09-12.09h13V385.17l38-9.39c15.43-64.78,72-111,136.17-112.7,58.28-1.54,112.65,33.92,136.17,89.22l29-1.18q-1-78.84-2-157.69l-126-38.35H97.13L39.61,212.6,4,350.73l25.83,29.74Z"/><path class="cls-1" d="M512.69,4.25q16.83,56.27,33.68,112.52l-66-6.07a284.53,284.53,0,0,1,0-68.72C482.58,24.17,485.82,13,495,7.47,501.18,3.74,508,3.71,512.69,4.25Z"/><rect class="cls-1" x="709.98" y="54.58" width="19.83" height="94.43" rx="9.91" transform="translate(949.07 -588.19) rotate(100.32)"/><rect class="cls-1" x="667.72" y="33.85" width="19.83" height="94.43" rx="9.91" transform="translate(25.5 -120.14) rotate(10.32)"/></g></g></svg>