<svg xmlns="http://www.w3.org/2000/svg" xmlns:xlink="http://www.w3.org/1999/xlink" viewBox="0 0 1510.43 452.53"><defs><style>.cls-1,.cls-2{fill:#fff;}.cls-1,.cls-5{stroke:#000;stroke-linecap:round;stroke-linejoin:round;stroke-width:8px;}.cls-3{clip-path:url(#clip-path);}.cls-4{fill:#d3d3d3;}.cls-5{fill:none;}.cls-6{fill:red;}</style><clipPath id="clip-path" transform="translate(90.43)"><path class="cls-1" d="M1241.17,170.45l-24-.53-18.52-16.69V83.32l6.52-7.83L1168.65,37.4l-70.43-.52-8.35-11H853L837.09,41.84H465.35L420,15.56l-405.8.06L4,31.27v24a4.61,4.61,0,0,1,3.85-2.05H23.24a4.63,4.63,0,0,1,4.63,4.63V147a4.63,4.63,0,0,1-2.05,3.84L10.43,161.14A4.62,4.62,0,0,1,4,159.87v52.18H81.09c4.9-10.13,35.85-71.56,103.3-88.82,68.46-17.52,146.35,17.68,187.57,88.82q8.61,28,17.21,56h473c11-83.62,78.64-146.1,155.74-149.48,63.82-2.79,125.22,35.3,154.93,96.45l56-11.66c11.55-.49,16.43-4,18.65-7.31,1-1.56,4.7-12,4.7-12Z"/></clipPath></defs><g id="Layer_2" data-name="Layer 2"><g id="body"><path class="cls-2" d="M1241.17,170.45l-24-.53-18.52-16.69V83.32l6.52-7.83L1168.65,37.4l-70.43-.52-8.35-11H853L837.09,41.84H465.35L420,15.56l-405.8.06L4,31.27v24a4.61,4.61,0,0,1,3.85-2.05H23.24a4.63,4.63,0,0,1,4.63,4.63V147a4.63,4.63,0,0,1-2.05,3.84L10.43,161.14A4.62,4.62,0,0,1,4,159.87v52.18H81.09c4.9-10.13,35.85-71.56,103.3-88.82,68.46-17.52,146.35,17.68,187.57,88.82q8.61,28,17.21,56h473c11-83.62,78.64-146.1,155.74-149.48,63.82-2.79,125.22,35.3,154.93,96.45l56-11.66c11.55-.49,16.43-4,18.65-7.31,1-1.56,4.7-12,4.7-12Z" transform="translate(90.43)"/><g class="cls-3"><path class="cls-4" d="M-56,150.1H68.83c7.55-8.87,60.36-68.81,148.69-69.39,89.89-.6,143.94,60.74,151.31,69.39H875.15c7.15-8.37,63.47-72,155.63-69.39,87.15,2.46,138.53,62.24,146.19,71.45l243-2.06V432.36s-1510.43,45.39-1510.43,0S-56,150.1-56,150.1Z" transform="translate(90.43)"/></g><path class="cls-5" d="M1241.17,170.45l-24-.53-18.52-16.69V83.32l6.52-7.83L1168.65,37.4l-70.43-.52-8.35-11H853L837.09,41.84H465.35L420,15.56l-405.8.06L4,31.27v24a4.61,4.61,0,0,1,3.85-2.05H23.24a4.63,4.63,0,0,1,4.63,4.63V147a4.63,4.63,0,0,1-2.05,3.84L10.43,161.14A4.62,4.62,0,0,1,4,159.87v52.18H81.09c4.9-10.13,35.85-71.56,103.3-88.82,68.46-17.52,146.35,17.68,187.57,88.82q8.61,28,17.21,56h473c11-83.62,78.64-146.1,155.74-149.48,63.82-2.79,125.22,35.3,154.93,96.45l56-11.66c11.55-.49,16.43-4,18.65-7.31,1-1.56,4.7-12,4.7-12Z" transform="translate(90.43)"/><path class="cls-6" d="M445.52,224.19H790.39" transform="translate(90.43)"/><path d="M445.52,224.19c28.74-1.66,57.48-2.53,86.22-3.11s57.48-.9,86.22-.89,57.47.24,86.21.87,57.48,1.46,86.22,3.13c-28.74,1.66-57.48,2.53-86.22,3.12s-57.47.87-86.21.87-57.48-.3-86.22-.89S474.26,225.84,445.52,224.19Z" transform="translate(90.43)"/><path d="M68.83,150.1A154.38,154.38,0,0,1,82.91,134a201.13,201.13,0,0,1,15.94-14.36,212.91,212.91,0,0,1,17.46-12.58,195.71,195.71,0,0,1,18.78-10.63A173.68,173.68,0,0,1,155,87.94a189.89,189.89,0,0,1,20.77-6.21A177.85,177.85,0,0,1,197.14,78c3.59-.49,7.21-.68,10.82-.95,1.8-.15,3.62-.13,5.43-.21s3.62-.16,5.43-.1a186.85,186.85,0,0,1,83.72,19.76,199.13,199.13,0,0,1,18.78,10.63,210.6,210.6,0,0,1,17.47,12.57c11.09,9.06,21.44,19.06,30,30.41a222.92,222.92,0,0,0-32.4-27.26c-5.77-4-11.71-7.8-17.82-11.23s-12.34-6.64-18.73-9.48a202.67,202.67,0,0,0-19.53-7.52c-3.29-1.14-6.66-2-10-3-3.38-.83-6.73-1.77-10.14-2.44a196,196,0,0,0-41.39-4.41c-1.74-.06-3.48.06-5.22.08s-3.47,0-5.21.18c-3.46.24-6.94.42-10.39.85s-6.89.84-10.33,1.34c-1.73.24-3.42.61-5.14.92s-3.42.61-5.11,1a199.18,199.18,0,0,0-39.68,13,228,228,0,0,0-68.91,48Z" transform="translate(90.43)"/><path d="M875.15,150.1A154.38,154.38,0,0,1,889.23,134a201.13,201.13,0,0,1,15.94-14.36,212.91,212.91,0,0,1,17.46-12.58,195.71,195.71,0,0,1,18.78-10.63,173.68,173.68,0,0,1,19.89-8.52,189.89,189.89,0,0,1,20.77-6.21A177.85,177.85,0,0,1,1003.46,78c3.59-.49,7.21-.68,10.82-.95,1.81-.15,3.62-.13,5.43-.21s3.62-.16,5.43-.1a186.85,186.85,0,0,1,83.72,19.76,199.13,199.13,0,0,1,18.78,10.63,210.6,210.6,0,0,1,17.47,12.57c11.09,9.06,21.44,19.06,30,30.41a222.92,222.92,0,0,0-32.4-27.26,210.6,210.6,0,0,0-17.82-11.23c-6.12-3.43-12.34-6.64-18.73-9.48a202.67,202.67,0,0,0-19.53-7.52c-3.29-1.14-6.66-2-10-3-3.37-.83-6.73-1.77-10.14-2.44a196,196,0,0,0-41.39-4.41c-1.74-.06-3.48.06-5.22.08s-3.47,0-5.21.18c-3.46.24-6.93.42-10.39.85s-6.89.84-10.33,1.34c-1.73.24-3.42.61-5.14.92s-3.42.61-5.11,1a199.18,199.18,0,0,0-39.68,13,228,228,0,0,0-68.91,48Z" transform="translate(90.43)"/><path d="M424.48,4l-.65,232.7-1-2.37,11.43,12.73a2.44,2.44,0,0,1-3.44,3.45l-12.73-11.44a2.91,2.91,0,0,1-1-2.18v-.19L416.48,4a4,4,0,0,1,8,0Z" transform="translate(90.43)"/><path d="M811.7,248.84l-1.7-190,.68,2L798,42.53a2.44,2.44,0,0,1,3.89-3L816,56.77a3,3,0,0,1,.68,1.84v.14l3,190a4,4,0,1,1-8,.13Z" transform="translate(90.43)"/><rect class="cls-5" x="540.13" y="75.23" width="78.26" height="19.3" rx="9.65"/></g></g></svg>