<svg xmlns="http://www.w3.org/2000/svg" viewBox="0 0 1297.91 355.58"><defs><style>.cls-1{fill:#303030;}.cls-1,.cls-2,.cls-3{stroke:#000;stroke-linecap:round;stroke-linejoin:round;stroke-width:8px;}.cls-2{fill:#727175;}.cls-3{fill:#ff3939;}</style></defs><g id="Layer_2" data-name="Layer 2"><g id="tampon"><path class="cls-1" d="M1266.46,248.73q13.85.08,27.45,0v28l-78.26,57.67V247.91Q1240.67,248.59,1266.46,248.73Z"/><path class="cls-1" d="M4,255.35c3.73-1.57,22.77-11.74,22.77-11.74h84.06L84.74,325.39H8.55Z"/><path class="cls-1" d="M1051.7,137.57A173,173,0,0,0,879.36,295.91H421.08A173,173,0,0,0,89.71,242.43h21.55a153.41,153.41,0,0,1,290.87,68.09H898.31a153.39,153.39,0,1,1,306.78,0h19.56A173,173,0,0,0,1051.7,137.57Z"/><path class="cls-1" d="M1183.18,231.09h88.43l12.91,8.21-6.26,7.83H1258.7v9.78h-43.83l-15.6,11.63a167.88,167.88,0,0,0-16.09-37.45Z"/><rect class="cls-1" x="409.96" y="311.04" width="483.65" height="9.39"/><polygon class="cls-1" points="831.52 326.54 831.52 328.62 471.52 328.62 471.52 326.54 408.39 326.54 408.39 351.58 471.52 351.58 471.52 343.23 831.52 343.23 831.52 351.58 894.65 351.58 894.65 326.54 831.52 326.54"/><path class="cls-2" d="M792.5,4h29.41a16.91,16.91,0,0,1,12,4.95l6.52,6.53a6.64,6.64,0,0,1,2,4.72V37a6.64,6.64,0,0,1-2,4.72l-6.5,6.51a21.66,21.66,0,0,1-15.32,6.34H792.5a6.68,6.68,0,0,1-6.68-6.67V10.68A6.68,6.68,0,0,1,792.5,4Z"/><polygon class="cls-2" points="882.65 37.69 843.52 37.69 843.52 20.86 863.99 20.86 882.65 37.69"/><path class="cls-1" d="M51.89,182.38,37,192.7a4.48,4.48,0,0,1-7-3.85V89.37a4.56,4.56,0,0,1,4.49-4.63h14.9a4.56,4.56,0,0,1,4.48,4.63v89.16A4.68,4.68,0,0,1,51.89,182.38Z"/><path class="cls-3" d="M44.71,168.19l-10,6.94A3,3,0,0,1,30,172.54V105.68a3.06,3.06,0,0,1,3-3.11H43a3.06,3.06,0,0,1,3,3.11v59.93A3.16,3.16,0,0,1,44.71,168.19Z"/></g></g></svg>