<svg xmlns="http://www.w3.org/2000/svg" viewBox="0 0 1246.16 330.43"><defs><style>.cls-1{fill:#727175;}.cls-1,.cls-2,.cls-3,.cls-4,.cls-5{stroke:#000;stroke-linecap:round;stroke-linejoin:round;stroke-width:8px;}.cls-2{fill:#303030;}.cls-3{fill:none;}.cls-4{fill:#fff;}</style></defs><g id="Layer_2" data-name="Layer 2"><g id="tavan"><path class="cls-1" d="M796,125.87l-30-.68-62.23-83.1,18.93-3.16A138.63,138.63,0,0,0,630.66,4H410.5V212.17h23V43.5H679.89S792.28,199.39,790.72,199.39c0,0-286.22,11.49-346.28,12.78H843V183.48Z"/><path class="cls-1" d="M22,31.12A31.43,31.43,0,0,1,53.16,4H410.3V173.11H4Z"/><line class="cls-1" x1="43.52" y1="170.43" x2="60.22" y2="28"/><line class="cls-1" x1="22.63" y1="28" x2="410.3" y2="28"/><path class="cls-2" d="M356.46,159.63H90.19a16.48,16.48,0,0,1-16.65-18l6.21-82.31A17.47,17.47,0,0,1,96.85,43.5H363.12a16.49,16.49,0,0,1,16.65,18l-6.21,82.32A17.46,17.46,0,0,1,356.46,159.63Z"/><line class="cls-1" x1="682.72" y1="41.3" x2="410.5" y2="41.3"/><line class="cls-1" x1="433.46" y1="43.5" x2="433.46" y2="186.7"/><path class="cls-3" d="M790.72,199.39S725.89,112.52,692,59.3c-12.15-19.07-14.54-46.17-14.54-46.17"/><path class="cls-1" d="M796.33,170.36l14.09,32s239.47,1.3,238.17,0l-33.09-33.1a27.7,27.7,0,0,0-19.58-8.11H795.29Z"/><polygon class="cls-1" points="1091.24 178.26 1078.59 194.44 1085.48 224.83 1183.13 232.26 1210.2 232.26 1159.71 176.83 1091.24 178.26"/><rect class="cls-1" x="1179.68" y="235.39" width="62.48" height="91.04" rx="9.39"/><rect class="cls-4" x="1166.31" y="248.32" width="44.74" height="65.19" rx="6.72"/><path class="cls-5" d="M735.66,204.22a86.28,86.28,0,0,0,20.86-23.68c5.2-8.76,6.34-14.39,10.11-15,4.2-.73,11.1,4.77,23,31.83a29.51,29.51,0,0,1-4.44,4.54C768.32,215.69,741,206.19,735.66,204.22Z"/></g></g></svg>