<svg xmlns="http://www.w3.org/2000/svg" viewBox="0 0 296.81 296.81"><defs><style>.cls-1{fill:#2f2f2f;}.cls-1,.cls-2,.cls-3,.cls-4,.cls-5,.cls-6{stroke:#000;stroke-linecap:round;stroke-linejoin:round;stroke-width:8px;}.cls-2{fill:#727175;}.cls-3{fill:#515151;}.cls-4{fill:#727272;}.cls-5{fill:#444;}.cls-6{fill:#bcbcbc;}</style></defs><g id="Layer_2" data-name="Layer 2"><g id="teker"><path class="cls-1" d="M292.81,156.51V140.29l-6.5-4.46q-.51-5.57-1.43-11l5.1-6-4.19-15.67-7.39-2.61q-1.92-5.23-4.27-10.27l3.38-7.08-8.11-14-7.84-.62q-3.21-4.53-6.75-8.78L256.25,52,244.78,40.56,237,42c-2.84-2.36-5.77-4.62-8.79-6.75l-.61-7.85-14-8.11-7.08,3.38q-5-2.33-10.28-4.27L193.61,11l-15.67-4.2-6,5.11q-5.43-.93-11-1.43L156.51,4H140.29l-4.46,6.5q-5.57.5-11,1.43l-6-5.11L103.19,11l-2.61,7.38q-5.23,1.94-10.27,4.27l-7.08-3.38-14,8.11-.62,7.85c-3,2.13-6,4.39-8.78,6.75L52,40.56,40.56,52,42,59.78c-2.36,2.83-4.62,5.76-6.75,8.78l-7.85.62-8.11,14,3.38,7.08q-2.33,5-4.27,10.27L11,103.19l-4.2,15.67,5.11,6q-.93,5.43-1.43,11L4,140.29v16.22L10.5,161q.5,5.57,1.43,11l-5.11,6L11,193.61l7.38,2.61q1.94,5.25,4.27,10.28l-3.38,7.08,8.11,14,7.85.61c2.13,3,4.39,5.95,6.75,8.79l-1.44,7.75L52,256.25l7.75-1.44q4.25,3.54,8.78,6.75l.62,7.84,14,8.11,7.08-3.38q5,2.34,10.27,4.27l2.61,7.39L118.86,290l6-5.1q5.43.93,11,1.43l4.46,6.5h16.22l4.46-6.5q5.57-.51,11-1.43l6,5.1,15.67-4.19,2.61-7.39q5.25-1.92,10.28-4.27l7.08,3.38,14-8.11.61-7.84q4.53-3.21,8.79-6.75l7.75,1.44,11.47-11.47L254.81,237q3.54-4.26,6.75-8.79l7.84-.61,8.11-14-3.38-7.08q2.34-5,4.27-10.28l7.39-2.61L290,177.94l-5.1-6q.93-5.43,1.43-11Z"/><circle class="cls-2" cx="148.4" cy="148.4" r="101.35"/><circle class="cls-3" cx="148.4" cy="148.4" r="56.49"/><circle class="cls-4" cx="148.4" cy="148.4" r="38.61"/><circle class="cls-5" cx="148.4" cy="148.4" r="32.67"/><circle class="cls-6" cx="148.4" cy="148.4" r="6.87"/></g></g></svg>