<svg xmlns="http://www.w3.org/2000/svg" viewBox="0 0 189.91 195.3"><defs><style>.cls-1{fill:#fff;stroke:#000;stroke-linecap:round;stroke-linejoin:round;stroke-width:8px;}</style></defs><g id="Layer_2" data-name="Layer 2"><g id="tekerRenk"><path class="cls-1" d="M95,41.16A56.55,56.55,0,0,1,109.42,43V18.47a14.47,14.47,0,1,0-28.93,0V43A56.47,56.47,0,0,1,95,41.16Z"/><path class="cls-1" d="M15.6,84.16l23.1,8.41a56.16,56.16,0,0,1,9.9-27.19L25.5,57a14.47,14.47,0,1,0-9.9,27.19Z"/><path class="cls-1" d="M151.44,97.49l23.74-6.36a14.47,14.47,0,0,0-7.49-27.95L144,69.54A56.18,56.18,0,0,1,151.44,97.49Z"/><path class="cls-1" d="M141.13,65.12l15.8-18.83a14.46,14.46,0,0,0-1.78-20.38h0a14.46,14.46,0,0,0-20.38,1.78L119,46.51A56.65,56.65,0,0,1,141.13,65.12Z"/><path class="cls-1" d="M51.79,61.22A56.52,56.52,0,0,1,75.47,44.61L61.39,24.49a14.47,14.47,0,0,0-23.7,16.6Z"/><path class="cls-1" d="M174.31,111.13l-23.1-8.4a56.24,56.24,0,0,1-9.9,27.19l23.1,8.4a14.47,14.47,0,0,0,9.9-27.19Z"/><path class="cls-1" d="M138.12,134.07a56.58,56.58,0,0,1-23.69,16.62l14.09,20.12a14.47,14.47,0,0,0,20.15,3.55h0a14.47,14.47,0,0,0,3.55-20.15Z"/><path class="cls-1" d="M48.78,130.17,33,149a14.47,14.47,0,1,0,22.17,18.6l15.79-18.82A56.69,56.69,0,0,1,48.78,130.17Z"/><path class="cls-1" d="M38.47,97.81l-23.74,6.36a14.47,14.47,0,0,0,7.49,28L46,125.75A56,56,0,0,1,38.47,97.81Z"/><path class="cls-1" d="M95,154.14a56.47,56.47,0,0,1-14.46-1.88v24.57a14.47,14.47,0,1,0,28.93,0V152.26A56.55,56.55,0,0,1,95,154.14Z"/></g></g></svg>